<?xml version="1.0" encoding="UTF-8" standalone="no"?>
<!-- Created with Inkscape (http://www.inkscape.org/) -->

<svg
   width="135mm"
   height="110mm"
   viewBox="0 0 135 110"
   version="1.1"
   id="svg5"
   inkscape:version="1.1.1 (3bf5ae0d25, 2021-09-20, custom)"
   sodipodi:docname="magnet_position.svg"
   xmlns:inkscape="http://www.inkscape.org/namespaces/inkscape"
   xmlns:sodipodi="http://sodipodi.sourceforge.net/DTD/sodipodi-0.dtd"
   xmlns="http://www.w3.org/2000/svg"
   xmlns:svg="http://www.w3.org/2000/svg">
  <sodipodi:namedview
     id="namedview7"
     pagecolor="#ffffff"
     bordercolor="#666666"
     borderopacity="1.0"
     inkscape:pageshadow="2"
     inkscape:pageopacity="0.0"
     inkscape:pagecheckerboard="0"
     inkscape:document-units="mm"
     showgrid="false"
     inkscape:zoom="0.7537679"
     inkscape:cx="143.94351"
     inkscape:cy="342.28043"
     inkscape:window-width="1914"
     inkscape:window-height="1051"
     inkscape:window-x="0"
     inkscape:window-y="0"
     inkscape:window-maximized="1"
     inkscape:current-layer="g19052" />
  <defs
     id="defs2">
    <rect
       x="429.94095"
       y="380.82678"
       width="337.35236"
       height="95.536415"
       id="rect13247" />
    <rect
       x="34.926182"
       y="113.67126"
       width="70.182083"
       height="69.709641"
       id="rect4350" />
    <rect
       x="34.926182"
       y="113.67126"
       width="70.182083"
       height="69.709641"
       id="rect4350-3" />
    <rect
       x="34.926182"
       y="113.67126"
       width="70.182083"
       height="69.709641"
       id="rect4350-3-7" />
    <rect
       x="34.926182"
       y="113.67126"
       width="70.182083"
       height="69.709641"
       id="rect4350-3-7-3" />
  </defs>
  <g
     inkscape:label="Layer 1"
     inkscape:groupmode="layer"
     id="layer1">
    <g
       id="g19052"
       transform="translate(-24.204867,-65.050844)">
      <rect
         style="fill:none;stroke:#000000;stroke-width:1;stroke-miterlimit:4;stroke-dasharray:none;stroke-opacity:1"
         id="rect846"
         width="47.782555"
         height="64.121086"
         x="59.908852"
         y="85.01432" />
      <path
         id="rect958"
         style="fill:none;stroke:#000000"
         d="m 108.375,65.963539 h 48.19141 L 108.10026,85.014317 H 59.908852 Z"
         sodipodi:nodetypes="ccccc" />
      <path
         id="rect1097"
         style="fill:none;stroke:#000000"
         d="M 107.69141,85.412758 156.10547,65.792966 V 129.51561 L 107.69141,149.1354 Z"
         sodipodi:nodetypes="ccccc" />
      <path
         id="rect1239"
         style="fill:none;stroke:#000000"
         d="M 59.908852,149.13541 H 107.84635 L 73.712235,173.33334 H 25.774737 Z"
         sodipodi:nodetypes="ccccc" />
      <text
         xml:space="preserve"
         transform="matrix(0.18708867,0.18708867,-0.18708867,0.18708867,83.165681,56.728131)"
         id="text4348"
         style="font-size:40px;line-height:1.25;font-family:Roboto;-inkscape-font-specification:Roboto;letter-spacing:0px;word-spacing:0px;white-space:pre;shape-inside:url(#rect4350);fill:#ff0000;fill-opacity:1"><tspan
           x="34.925781"
           y="149.0625"
           id="tspan19310">+</tspan></text>
      <text
         xml:space="preserve"
         transform="matrix(0.18708867,0.18708867,-0.18708867,0.18708867,118.0119,56.034691)"
         id="text4348-6"
         style="font-size:40px;line-height:1.25;font-family:Roboto;-inkscape-font-specification:Roboto;letter-spacing:0px;word-spacing:0px;white-space:pre;shape-inside:url(#rect4350-3);fill:#ff0000;fill-opacity:1"><tspan
           x="34.925781"
           y="149.0625"
           id="tspan19312">+</tspan></text>
      <text
         xml:space="preserve"
         transform="matrix(0.18708867,0.18708867,-0.18708867,0.18708867,86.248016,132.23397)"
         id="text4348-6-5"
         style="font-size:40px;line-height:1.25;font-family:Roboto;-inkscape-font-specification:Roboto;letter-spacing:0px;word-spacing:0px;white-space:pre;shape-inside:url(#rect4350-3-7);fill:#0000ff;fill-opacity:1"><tspan
           x="34.925781"
           y="149.0625"
           id="tspan19314">+</tspan></text>
      <text
         xml:space="preserve"
         transform="matrix(0.18708867,0.18708867,-0.18708867,0.18708867,54.55045,133.27059)"
         id="text4348-6-5-5"
         style="font-size:40px;line-height:1.25;font-family:Roboto;-inkscape-font-specification:Roboto;letter-spacing:0px;word-spacing:0px;white-space:pre;shape-inside:url(#rect4350-3-7-3);fill:#0000ff;fill-opacity:1"><tspan
           x="34.925781"
           y="149.0625"
           id="tspan19316">+</tspan></text>
      <g
         id="g18765"
         transform="rotate(-54.639172,136.96935,111.21852)">
        <g
           aria-label="Rückseite"
           transform="scale(0.26458333)"
           id="text13245"
           style="font-size:40px;line-height:1.25;font-family:Roboto;-inkscape-font-specification:Roboto;letter-spacing:0px;word-spacing:0px;white-space:pre;shape-inside:url(#rect13247)">
          <path
             d="m 447.69531,402.54492 q 1.26953,0.42969 2.46094,1.83594 1.21094,1.40625 2.42187,3.86719 l 4.00391,7.96875 h -4.23828 l -3.73047,-7.48047 q -1.44531,-2.92969 -2.8125,-3.88672 -1.34766,-0.95703 -3.69141,-0.95703 h -4.29687 v 12.32422 h -3.94531 v -29.16016 h 8.90625 q 5,0 7.46093,2.08984 2.46094,2.08985 2.46094,6.3086 0,2.7539 -1.28906,4.57031 -1.26953,1.81641 -3.71094,2.51953 z m -9.88281,-12.24609 v 10.35156 h 4.96094 q 2.85156,0 4.29687,-1.30859 1.46485,-1.32813 1.46485,-3.88672 0,-2.5586 -1.46485,-3.84766 -1.44531,-1.30859 -4.29687,-1.30859 z"
             style="fill:#808080"
             id="path18619" />
          <path
             d="M 459.33594,407.58398 V 394.3418 h 3.59375 v 13.10547 q 0,3.10546 1.21093,4.66796 1.21094,1.54297 3.63282,1.54297 2.91015,0 4.58984,-1.85547 1.69922,-1.85546 1.69922,-5.05859 V 394.3418 h 3.59375 v 21.875 h -3.59375 v -3.35938 q -1.30859,1.99219 -3.04688,2.96875 -1.71875,0.95703 -4.0039,0.95703 -3.76953,0 -5.72266,-2.34375 -1.95312,-2.34375 -1.95312,-6.85547 z m 9.04297,-13.76953 z m 1.79687,-7.91015 h 3.96484 v 3.94531 h -3.96484 z m -7.63672,0 h 3.96485 v 3.94531 h -3.96485 z"
             style="fill:#808080"
             id="path18621" />
          <path
             d="m 500.80078,395.18164 v 3.35938 q -1.52344,-0.83985 -3.06641,-1.25 -1.52343,-0.42969 -3.08593,-0.42969 -3.4961,0 -5.42969,2.22656 -1.93359,2.20703 -1.93359,6.21094 0,4.0039 1.93359,6.23047 1.93359,2.20703 5.42969,2.20703 1.5625,0 3.08593,-0.41016 1.54297,-0.42969 3.06641,-1.26953 v 3.32031 q -1.50391,0.70313 -3.125,1.05469 -1.60156,0.35156 -3.41797,0.35156 -4.9414,0 -7.85156,-3.10547 -2.91016,-3.10546 -2.91016,-8.3789 0,-5.35156 2.92969,-8.41797 2.94922,-3.06641 8.06641,-3.06641 1.66015,0 3.24218,0.35157 1.58204,0.33203 3.06641,1.01562 z"
             style="fill:#808080"
             id="path18623" />
          <path
             d="m 506.91406,385.82617 h 3.61328 v 17.94922 L 521.25,394.3418 h 4.58984 l -11.60156,10.23437 12.08984,11.64063 h -4.6875 l -11.11328,-10.6836 v 10.6836 h -3.61328 z"
             style="fill:#808080"
             id="path18625" />
          <path
             d="m 544.16016,394.98633 v 3.39844 q -1.52344,-0.78125 -3.16407,-1.17188 -1.64062,-0.39062 -3.39843,-0.39062 -2.67579,0 -4.02344,0.82031 -1.32813,0.82031 -1.32813,2.46094 0,1.25 0.95703,1.97265 0.95704,0.70313 3.84766,1.34766 l 1.23047,0.27344 q 3.82812,0.82031 5.42969,2.32421 1.62109,1.48438 1.62109,4.16016 0,3.04688 -2.42187,4.82422 -2.40235,1.77734 -6.6211,1.77734 -1.75781,0 -3.67187,-0.35156 -1.89453,-0.33203 -4.00391,-1.01562 v -3.71094 q 1.99219,1.03515 3.92578,1.5625 1.9336,0.50781 3.82813,0.50781 2.53906,0 3.90625,-0.85937 1.36718,-0.87891 1.36718,-2.46094 0,-1.46485 -0.99609,-2.2461 -0.97656,-0.78125 -4.31641,-1.5039 l -1.25,-0.29297 q -3.33984,-0.70313 -4.82421,-2.14844 -1.48438,-1.46484 -1.48438,-4.0039 0,-3.08594 2.1875,-4.76563 2.1875,-1.67969 6.21094,-1.67969 1.99219,0 3.75,0.29297 1.75781,0.29297 3.24219,0.87891 z"
             style="fill:#808080"
             id="path18627" />
          <path
             d="m 569.76562,404.38086 v 1.75781 h -16.52343 q 0.23437,3.71094 2.22656,5.66406 2.01172,1.9336 5.58594,1.9336 2.07031,0 4.0039,-0.50781 1.95313,-0.50782 3.86719,-1.52344 v 3.39844 q -1.93359,0.82031 -3.96484,1.25 -2.03125,0.42968 -4.1211,0.42968 -5.23437,0 -8.30078,-3.04687 -3.04687,-3.04688 -3.04687,-8.24219 0,-5.37109 2.89062,-8.51562 2.91016,-3.16407 7.83203,-3.16407 4.41407,0 6.97266,2.85157 2.57812,2.83203 2.57812,7.71484 z m -3.59375,-1.05469 q -0.0391,-2.94922 -1.66015,-4.70703 -1.60156,-1.75781 -4.25781,-1.75781 -3.00782,0 -4.82422,1.69922 -1.79688,1.69922 -2.07032,4.78515 z"
             style="fill:#808080"
             id="path18629" />
          <path
             d="m 575.66406,394.3418 h 3.59375 v 21.875 h -3.59375 z m 0,-8.51563 h 3.59375 v 4.55078 h -3.59375 z"
             style="fill:#808080"
             id="path18631" />
          <path
             d="m 590.33203,388.13086 v 6.21094 h 7.40234 v 2.79297 h -7.40234 v 11.875 q 0,2.67578 0.72266,3.4375 0.74218,0.76171 2.98828,0.76171 h 3.6914 v 3.00782 h -3.6914 q -4.16016,0 -5.74219,-1.54297 -1.58203,-1.5625 -1.58203,-5.66406 v -11.875 h -2.63672 v -2.79297 h 2.63672 v -6.21094 z"
             style="fill:#808080"
             id="path18633" />
          <path
             d="m 621.17187,404.38086 v 1.75781 h -16.52343 q 0.23437,3.71094 2.22656,5.66406 2.01172,1.9336 5.58594,1.9336 2.07031,0 4.0039,-0.50781 1.95313,-0.50782 3.86719,-1.52344 v 3.39844 q -1.93359,0.82031 -3.96484,1.25 -2.03125,0.42968 -4.1211,0.42968 -5.23437,0 -8.30078,-3.04687 -3.04687,-3.04688 -3.04687,-8.24219 0,-5.37109 2.89062,-8.51562 2.91016,-3.16407 7.83203,-3.16407 4.41407,0 6.97266,2.85157 2.57812,2.83203 2.57812,7.71484 z m -3.59375,-1.05469 q -0.0391,-2.94922 -1.66015,-4.70703 -1.60156,-1.75781 -4.25781,-1.75781 -3.00782,0 -4.82422,1.69922 -1.79688,1.69922 -2.07032,4.78515 z"
             style="fill:#808080"
             id="path18635" />
        </g>
      </g>
    </g>
  </g>
</svg>
