<?xml version="1.0" encoding="UTF-8" standalone="no"?>
<!-- Created with Inkscape (http://www.inkscape.org/) -->

<svg
   width="26.5mm"
   height="26.5mm"
   viewBox="0 0 26.5 26.5"
   version="1.1"
   id="svg9970"
   sodipodi:docname="magnet.svg"
   inkscape:version="1.1.1 (3bf5ae0d25, 2021-09-20, custom)"
   xmlns:inkscape="http://www.inkscape.org/namespaces/inkscape"
   xmlns:sodipodi="http://sodipodi.sourceforge.net/DTD/sodipodi-0.dtd"
   xmlns="http://www.w3.org/2000/svg"
   xmlns:svg="http://www.w3.org/2000/svg">
  <sodipodi:namedview
     id="namedview9972"
     pagecolor="#505050"
     bordercolor="#ffffff"
     borderopacity="1"
     inkscape:pageshadow="0"
     inkscape:pageopacity="0"
     inkscape:pagecheckerboard="1"
     inkscape:document-units="in"
     showgrid="false"
     width="10.5mm"
     inkscape:snap-bbox="true"
     inkscape:snap-bbox-midpoints="true"
     inkscape:snap-page="true"
     inkscape:snap-bbox-edge-midpoints="true"
     inkscape:bbox-nodes="true"
     inkscape:bbox-paths="true"
     inkscape:snap-grids="false"
     inkscape:zoom="8.8230078"
     inkscape:cx="75.314452"
     inkscape:cy="52.193085"
     inkscape:window-width="3834"
     inkscape:window-height="1571"
     inkscape:window-x="0"
     inkscape:window-y="0"
     inkscape:window-maximized="1"
     inkscape:current-layer="text25528" />
  <defs
     id="defs9967">
    <rect
       x="-67.619284"
       y="-0.62646932"
       width="150.84407"
       height="82.801092"
       id="rect65650" />
    <rect
       x="21.214067"
       y="-13.974915"
       width="61.789799"
       height="57.027744"
       id="rect25530" />
    <rect
       x="21.214067"
       y="-13.974915"
       width="61.789799"
       height="57.027744"
       id="rect25530-9" />
    <rect
       x="21.214067"
       y="-13.974915"
       width="61.789799"
       height="57.027744"
       id="rect25530-3" />
    <rect
       x="21.214067"
       y="-13.974915"
       width="61.789799"
       height="57.027744"
       id="rect25530-37" />
  </defs>
  <rect
     style="fill:#333333;fill-opacity:1;stroke-width:0.87026;stroke-linejoin:round"
     id="rect10695"
     width="19.770061"
     height="23.527576"
     x="6.729939"
     y="0" />
  <g
     inkscape:label="Layer 1"
     inkscape:groupmode="layer"
     id="layer1">
    <g
       id="g10671"
       inkscape:label="Pins"
       transform="translate(2.9319422,6.6395328)">
      <g
         id="g10657"
         inkscape:label="SIG">
        <path
           sodipodi:type="star"
           style="fill:#ffcc00;fill-opacity:1;stroke-width:3.08787;stroke-linejoin:round"
           id="path10491-6"
           inkscape:flatsided="false"
           sodipodi:sides="4"
           sodipodi:cx="34.243965"
           sodipodi:cy="5.9275508"
           sodipodi:r1="5.7399855"
           sodipodi:r2="5.7399855"
           sodipodi:arg1="1.1840952"
           sodipodi:arg2="1.9694934"
           inkscape:rounded="0"
           inkscape:randomized="0"
           transform="matrix(0.23437959,0,0,0.23437959,-1.6760866,7.5449582)"
           d="M 36.408716,11.243686 32.0156,11.217335 28.92783,8.0923013 28.954181,3.6991855 32.079215,0.61141608 36.47233,0.63776619 39.5601,3.7628003 39.53375,8.1559161 Z" />
        <rect
           style="fill:#8c8c8c;fill-opacity:1;stroke-width:1.08468;stroke-linejoin:round"
           id="rect10228-6-7"
           width="6.3499999"
           height="0.76200002"
           x="0"
           y="8.5532551" />
      </g>
      <g
         id="g10653"
         inkscape:label="NC">
        <path
           sodipodi:type="star"
           style="fill:#ffcc00;fill-opacity:1;stroke-width:3.08787;stroke-linejoin:round"
           id="path10491-5"
           inkscape:flatsided="false"
           sodipodi:sides="4"
           sodipodi:cx="34.243965"
           sodipodi:cy="5.9275508"
           sodipodi:r1="5.7399855"
           sodipodi:r2="5.7399855"
           sodipodi:arg1="1.1840952"
           sodipodi:arg2="1.9694934"
           inkscape:rounded="0"
           inkscape:randomized="0"
           transform="matrix(0.23437959,0,0,0.23437959,-1.6760866,5.0049587)"
           d="M 36.408716,11.243686 32.0156,11.217335 28.92783,8.0923013 28.954181,3.6991855 32.079215,0.61141608 36.47233,0.63776619 39.5601,3.7628003 39.53375,8.1559161 Z" />
        <rect
           style="fill:#8c8c8c;fill-opacity:1;stroke-width:1.08468;stroke-linejoin:round"
           id="rect10228-6-5"
           width="6.3499999"
           height="0.76200002"
           x="0"
           y="6.0132556" />
      </g>
      <g
         id="g10649"
         inkscape:label="VCC">
        <path
           sodipodi:type="star"
           style="fill:#ffcc00;fill-opacity:1;stroke-width:3.08787;stroke-linejoin:round"
           id="path10491"
           inkscape:flatsided="false"
           sodipodi:sides="4"
           sodipodi:cx="34.243965"
           sodipodi:cy="5.9275508"
           sodipodi:r1="5.7399855"
           sodipodi:r2="5.7399855"
           sodipodi:arg1="1.1840952"
           sodipodi:arg2="1.9694934"
           inkscape:rounded="0"
           inkscape:randomized="0"
           d="M 36.408716,11.243686 32.0156,11.217335 28.92783,8.0923013 28.954181,3.6991855 32.079215,0.61141608 36.47233,0.63776619 39.5601,3.7628003 39.53375,8.1559161 Z"
           transform="matrix(0.23437959,0,0,0.23437959,-1.6760864,2.4649587)" />
        <rect
           style="fill:#8c8c8c;fill-opacity:1;stroke-width:1.08468;stroke-linejoin:round"
           id="rect10228-6"
           width="6.3499999"
           height="0.76200002"
           x="0"
           y="3.4732556" />
      </g>
      <g
         id="g10645"
         inkscape:label="GND">
        <path
           sodipodi:type="star"
           style="fill:#ffcc00;fill-opacity:1;stroke-width:3.08787;stroke-linejoin:round"
           id="path10491-3"
           inkscape:flatsided="false"
           sodipodi:sides="4"
           sodipodi:cx="34.243965"
           sodipodi:cy="5.9275508"
           sodipodi:r1="5.7399855"
           sodipodi:r2="5.7399855"
           sodipodi:arg1="1.1840952"
           sodipodi:arg2="1.9694934"
           inkscape:rounded="0"
           inkscape:randomized="0"
           transform="matrix(0.23437959,0,0,0.23437959,-1.6760866,-0.07504112)"
           d="M 36.408716,11.243686 32.0156,11.217335 28.92783,8.0923013 28.954181,3.6991855 32.079215,0.61141608 36.47233,0.63776619 39.5601,3.7628003 39.53375,8.1559161 Z" />
        <rect
           style="fill:#8c8c8c;fill-opacity:1;stroke-width:1.08468;stroke-linejoin:round"
           id="rect10228"
           width="6.3499999"
           height="0.76200002"
           x="0"
           y="0.93325579" />
      </g>
    </g>
  </g>
  <g
     aria-label="GND"
     transform="matrix(0.26458334,0,0,0.26458334,4.825779,10.896293)"
     id="text25528"
     style="font-size:5.33333px;line-height:1.25;font-family:Droid;-inkscape-font-specification:Droid;white-space:pre;shape-inside:url(#rect25530)">
    <path
       d="m 21.81751,-9.8519452 v -1.4453328 q 0,-0.367999 0.224,-0.655999 l 0.725333,-0.938666 q 0.24,-0.309334 0.639999,-0.309334 h 0.794667 q 0.112,0 0.192,0.08 0.08,0.08 0.08,0.186667 0,0.112 -0.08,0.192 -0.08,0.08 -0.192,0.08 h -0.794667 q -0.133333,0 -0.213333,0.106666 l -0.725333,0.928 q -0.112,0.149333 -0.112,0.330666 v 1.4453328 q 0,0.112 0.08,0.1919999 0.08,0.08 0.186667,0.08 h 1.039999 q 0.106667,0 0.186667,-0.08 0.08533,-0.08 0.08533,-0.1919999 v -0.5493328 h -0.528 q -0.111999,0 -0.191999,-0.07467 -0.07467,-0.08 -0.07467,-0.192 0,-0.112 0.07467,-0.192 0.08,-0.08 0.191999,-0.08 h 1.066666 v 1.0879998 q 0,0.3306665 -0.239999,0.5706664 -0.24,0.2399998 -0.570667,0.2399998 H 22.62284 q -0.336,0 -0.570666,-0.2346665 -0.234667,-0.2399999 -0.234667,-0.5759997 z"
       style="font-family:OCRA;-inkscape-font-specification:OCRA;fill:#ffcc00"
       id="path58480" />
    <path
       d="m 25.673505,-9.3132788 v -3.8879982 h 0.709333 l 1.408,3.2106653 V -12.93461 q 0,-0.106667 0.07467,-0.186667 0.08,-0.08 0.192,-0.08 0.112,0 0.192,0.08 0.08,0.08 0.08,0.186667 v 3.893331 h -0.714666 l -1.402666,-3.199998 v 2.9279982 q 0,0.1119999 -0.08,0.1919999 -0.08,0.08 -0.192,0.08 -0.112,0 -0.192,-0.08 -0.07467,-0.08 -0.07467,-0.1919999 z"
       style="font-family:OCRA;-inkscape-font-specification:OCRA;fill:#ffcc00"
       id="path58482" />
    <path
       d="m 29.529501,-9.3132788 q 0,-0.1066666 0.07467,-0.1866666 0.08,-0.08 0.191999,-0.08 h 0.261334 V -12.66261 H 29.79617 q -0.112,0 -0.191999,-0.08 -0.07467,-0.08 -0.07467,-0.192 0,-0.106667 0.07467,-0.186667 0.08,-0.08 0.191999,-0.08 h 0.992 q 0.234666,0 0.426666,0.128 0.197333,0.128 0.293333,0.32 l 0.544,1.082666 q 0.133333,0.277333 0.133333,0.549333 0,0.272 -0.133333,0.549333 L 31.5135,-9.4839454 q -0.08533,0.1919999 -0.288,0.3199998 -0.197333,0.1226666 -0.437333,0.1226666 h -0.992 q -0.112,0 -0.191999,-0.08 -0.07467,-0.08 -0.07467,-0.1919999 z m 1.066666,-0.2666665 h 0.192 q 0.165333,0 0.234666,-0.1493333 l 0.549333,-1.0826664 q 0.07467,-0.181333 0.07467,-0.309333 0,-0.16 -0.07467,-0.309333 l -0.549333,-1.082666 Q 30.9535,-12.66261 30.788167,-12.66261 h -0.192 z"
       style="font-family:OCRA;-inkscape-font-specification:OCRA;fill:#ffcc00"
       id="path58484" />
    <text
       xml:space="preserve"
       transform="translate(-18.239164,-41.182839)"
       id="text65648"
       style="font-size:5.33333px;line-height:1.25;font-family:Droid;-inkscape-font-specification:Droid;white-space:pre;shape-inside:url(#rect65650)"><tspan
         x="-67.619141"
         y="4.0917941"
         id="tspan74995">SCL</tspan></text>
  </g>
  <g
     aria-label="VCC"
     transform="matrix(0.26458334,0,0,0.26458334,4.8257792,13.436293)"
     id="text25528-0"
     style="font-size:5.33333px;line-height:1.25;font-family:Droid;-inkscape-font-specification:Droid;white-space:pre;shape-inside:url(#rect25530-9)">
    <path
       d="m 21.81751,-11.969277 v -0.965333 q 0,-0.106667 0.07467,-0.186667 0.08,-0.08 0.192,-0.08 0.111999,0 0.191999,0.08 0.08,0.08 0.08,0.186667 v 0.858666 l 0.789333,2.015999 0.789333,-2.015999 v -0.858666 q 0,-0.106667 0.07467,-0.186667 0.08,-0.08 0.192,-0.08 0.112,0 0.192,0.08 0.08,0.08 0.08,0.186667 v 0.959999 l -1.077332,2.7626655 q -0.06933,0.1706665 -0.250667,0.1706665 -0.186666,0 -0.256,-0.1706665 z"
       style="font-family:OCRA;-inkscape-font-specification:OCRA;fill:#ffcc00"
       id="path58487" />
    <path
       d="m 25.673505,-11.121278 q 0,-0.282666 0.128,-0.549333 l 0.538667,-1.087999 q 0.08533,-0.192 0.282666,-0.314667 0.202667,-0.128 0.442667,-0.128 h 0.991999 q 0.112,0 0.192,0.08 0.08,0.08 0.08,0.186667 0,0.112 -0.08,0.192 -0.08,0.08 -0.192,0.08 h -0.991999 q -0.165334,0 -0.234667,0.149333 l -0.549333,1.082666 q -0.06933,0.149333 -0.06933,0.309333 0,0.16 0.06933,0.309333 l 0.549333,1.0826664 q 0.06933,0.1493333 0.234667,0.1493333 h 0.991999 q 0.112,0 0.192,0.08 0.08,0.08 0.08,0.1866666 0,0.1119999 -0.08,0.1919999 -0.08,0.08 -0.192,0.08 h -0.991999 q -0.234667,0 -0.432,-0.1279999 -0.192,-0.1279999 -0.288,-0.3199998 -0.394666,-0.7519995 -0.544,-1.0826665 -0.128,-0.272 -0.128,-0.549333 z"
       style="font-family:OCRA;-inkscape-font-specification:OCRA;fill:#ffcc00"
       id="path58489" />
    <path
       d="m 29.529501,-11.121278 q 0,-0.282666 0.128,-0.549333 l 0.538666,-1.087999 q 0.08533,-0.192 0.282667,-0.314667 0.202666,-0.128 0.442666,-0.128 h 0.991999 q 0.112,0 0.192,0.08 0.08,0.08 0.08,0.186667 0,0.112 -0.08,0.192 -0.08,0.08 -0.192,0.08 H 30.9215 q -0.165333,0 -0.234666,0.149333 l -0.549333,1.082666 q -0.06933,0.149333 -0.06933,0.309333 0,0.16 0.06933,0.309333 l 0.549333,1.0826664 q 0.06933,0.1493333 0.234666,0.1493333 h 0.991999 q 0.112,0 0.192,0.08 0.08,0.08 0.08,0.1866666 0,0.1119999 -0.08,0.1919999 -0.08,0.08 -0.192,0.08 H 30.9215 q -0.234666,0 -0.432,-0.1279999 -0.192,-0.1279999 -0.288,-0.3199998 -0.394666,-0.7519995 -0.543999,-1.0826665 -0.128,-0.272 -0.128,-0.549333 z"
       style="font-family:OCRA;-inkscape-font-specification:OCRA;fill:#ffcc00"
       id="path58491" />
  </g>
  <g
     aria-label="NC"
     transform="matrix(0.26458334,0,0,0.26458334,4.825779,15.976293)"
     id="text25528-3"
     style="font-size:5.33333px;line-height:1.25;font-family:Droid;-inkscape-font-specification:Droid;white-space:pre;shape-inside:url(#rect25530-3)">
    <path
       d="m 21.81751,-9.3132788 v -3.8879982 h 0.709333 l 1.407999,3.2106653 V -12.93461 q 0,-0.106667 0.07467,-0.186667 0.08,-0.08 0.192,-0.08 0.112,0 0.192,0.08 0.08,0.08 0.08,0.186667 v 3.893331 h -0.714666 l -1.402666,-3.199998 v 2.9279982 q 0,0.1119999 -0.08,0.1919999 -0.08,0.08 -0.191999,0.08 -0.112,0 -0.192,-0.08 -0.07467,-0.08 -0.07467,-0.1919999 z"
       style="font-family:OCRA;-inkscape-font-specification:OCRA;fill:#ffcc00"
       id="path58494" />
    <path
       d="m 25.673505,-11.121278 q 0,-0.282666 0.128,-0.549333 l 0.538667,-1.087999 q 0.08533,-0.192 0.282666,-0.314667 0.202667,-0.128 0.442667,-0.128 h 0.991999 q 0.112,0 0.192,0.08 0.08,0.08 0.08,0.186667 0,0.112 -0.08,0.192 -0.08,0.08 -0.192,0.08 h -0.991999 q -0.165334,0 -0.234667,0.149333 l -0.549333,1.082666 q -0.06933,0.149333 -0.06933,0.309333 0,0.16 0.06933,0.309333 l 0.549333,1.0826664 q 0.06933,0.1493333 0.234667,0.1493333 h 0.991999 q 0.112,0 0.192,0.08 0.08,0.08 0.08,0.1866666 0,0.1119999 -0.08,0.1919999 -0.08,0.08 -0.192,0.08 h -0.991999 q -0.234667,0 -0.432,-0.1279999 -0.192,-0.1279999 -0.288,-0.3199998 -0.394666,-0.7519995 -0.544,-1.0826665 -0.128,-0.272 -0.128,-0.549333 z"
       style="font-family:OCRA;-inkscape-font-specification:OCRA;fill:#ffcc00"
       id="path58496" />
  </g>
  <g
     aria-label="SIG"
     transform="matrix(0.26458334,0,0,0.26458334,4.825779,18.516293)"
     id="text25528-32"
     style="font-size:5.33333px;line-height:1.25;font-family:Droid;-inkscape-font-specification:Droid;white-space:pre;shape-inside:url(#rect25530-37)">
    <path
       d="m 21.81751,-9.7612786 q 0,-0.1119999 0.07467,-0.1919998 0.08,-0.08 0.192,-0.08 0.111999,0 0.191999,0.08 0.08,0.08 0.08,0.1919998 0,0.074667 0.05333,0.128 0.05333,0.053333 0.128,0.053333 h 1.327999 q 0.06933,0 0.06933,-0.069333 L 21.940177,-12.219944 Q 21.81751,-12.39061 21.81751,-12.593277 v -0.016 q 0,-0.24 0.176,-0.416 0.181333,-0.176 0.426666,-0.176 h 1.328 q 0.293333,0 0.506666,0.213334 0.218666,0.213333 0.218666,0.506666 0,0.112 -0.08,0.192 -0.08,0.08 -0.192,0.08 -0.112,0 -0.192,-0.08 -0.07467,-0.08 -0.07467,-0.192 0,-0.06933 -0.05867,-0.122667 -0.05333,-0.05867 -0.127999,-0.05867 h -1.328 q -0.064,0 -0.064,0.05333 v 0.016 0.02133 l 1.983999,2.549332 q 0.133333,0.1600002 0.133333,0.3733334 -0.01067,0.2506665 -0.186666,0.4319997 -0.170667,0.1759999 -0.421333,0.1759999 H 22.53751 q -0.293334,0 -0.506667,-0.2133332 -0.213333,-0.2133332 -0.213333,-0.5066664 z"
       style="font-family:OCRA;-inkscape-font-specification:OCRA;fill:#ffcc00"
       id="path58499" />
    <path
       d="m 25.673505,-9.3132788 q 0,-0.1066666 0.07467,-0.1866666 0.08,-0.08 0.192,-0.08 h 0.789333 V -12.66261 h -0.789333 q -0.112,0 -0.192,-0.08 -0.07467,-0.08 -0.07467,-0.192 0,-0.106667 0.07467,-0.186667 0.08,-0.08 0.192,-0.08 h 2.117332 q 0.112,0 0.192,0.08 0.08,0.08 0.08,0.186667 0,0.112 -0.08,0.192 -0.08,0.08 -0.192,0.08 h -0.789333 v 3.0826647 h 0.789333 q 0.112,0 0.192,0.08 0.08,0.08 0.08,0.1866666 0,0.1119999 -0.08,0.1919999 -0.08,0.08 -0.192,0.08 h -2.117332 q -0.112,0 -0.192,-0.08 -0.07467,-0.08 -0.07467,-0.192 z"
       style="font-family:OCRA;-inkscape-font-specification:OCRA;fill:#ffcc00"
       id="path58501" />
    <path
       d="m 29.529501,-9.8519452 v -1.4453328 q 0,-0.367999 0.224,-0.655999 l 0.725333,-0.938666 q 0.24,-0.309334 0.639999,-0.309334 h 0.794666 q 0.112,0 0.192,0.08 0.08,0.08 0.08,0.186667 0,0.112 -0.08,0.192 -0.08,0.08 -0.192,0.08 h -0.794666 q -0.133333,0 -0.213333,0.106666 l -0.725333,0.928 q -0.112,0.149333 -0.112,0.330666 v 1.4453328 q 0,0.112 0.08,0.1919999 0.08,0.08 0.186667,0.08 h 1.039999 q 0.106667,0 0.186667,-0.08 0.08533,-0.08 0.08533,-0.1919999 v -0.5493328 h -0.528 q -0.112,0 -0.192,-0.07467 -0.07467,-0.08 -0.07467,-0.192 0,-0.112 0.07467,-0.192 0.08,-0.08 0.192,-0.08 h 1.066666 v 1.0879998 q 0,0.3306665 -0.24,0.5706664 -0.239999,0.2399998 -0.570666,0.2399998 h -1.039999 q -0.336,0 -0.570667,-0.2346665 -0.234666,-0.2399999 -0.234666,-0.5759997 z"
       style="font-family:OCRA;-inkscape-font-specification:OCRA;fill:#ffcc00"
       id="path58503" />
  </g>
</svg>
