<?xml version="1.0" encoding="UTF-8" standalone="no"?>
<svg
   height="346.50mm"
   viewBox="0.0 0.0 482.30 346.50"
   width="482.30mm"
   version="1.1"
   id="svg211"
   sodipodi:docname="box_schnittplan.svg"
   inkscape:version="1.1.1 (3bf5ae0d25, 2021-09-20, custom)"
   xmlns:inkscape="http://www.inkscape.org/namespaces/inkscape"
   xmlns:sodipodi="http://sodipodi.sourceforge.net/DTD/sodipodi-0.dtd"
   xmlns="http://www.w3.org/2000/svg"
   xmlns:svg="http://www.w3.org/2000/svg"
   xmlns:rdf="http://www.w3.org/1999/02/22-rdf-syntax-ns#"
   xmlns:cc="http://creativecommons.org/ns#"
   xmlns:dc="http://purl.org/dc/elements/1.1/">
  <defs
     id="defs215" />
  <sodipodi:namedview
     id="namedview213"
     pagecolor="#ffffff"
     bordercolor="#666666"
     borderopacity="1.0"
     inkscape:pageshadow="2"
     inkscape:pageopacity="0.0"
     inkscape:pagecheckerboard="0"
     inkscape:document-units="mm"
     showgrid="false"
     inkscape:zoom="0.37620254"
     inkscape:cx="923.70455"
     inkscape:cy="643.2705"
     inkscape:window-width="1914"
     inkscape:window-height="1051"
     inkscape:window-x="0"
     inkscape:window-y="0"
     inkscape:window-maximized="1"
     inkscape:current-layer="svg211" />
  <!--
ClosedBox - Fully closed box


This box is more of a building block than a finished item.
Use a vector graphics program (like Inkscape) to add holes or adjust the base
plate.

See BasedBox for variant with a base.


Created with Boxes.py (https://festi.info/boxes.py)
Creation date: 2022-01-17 10:34:19
Command line (remove spaces between dashes): boxes ClosedBox - -FingerJoint_angle=90.0 - -FingerJoint_style=rectangular - -FingerJoint_surroundingspaces=2.0 - -FingerJoint_edge_width=1.0 - -FingerJoint_extra_length=0.0 - -FingerJoint_finger=2.0 - -FingerJoint_play=0.0 - -FingerJoint_space=2.0 - -FingerJoint_width=1.0 - -x=230 - -y=80 - -h=115 - -outside=0 - -outside=1 - -thickness=3.8 - -format=svg - -tabs=0.0 - -debug=0 - -labels=0 - -labels=1 - -reference=100 - -burn=0.1
Url: http://www.festi.info/ClosedBox?FingerJoint_angle=90.0&FingerJoint_style=rectangular&FingerJoint_surroundingspaces=2.0&FingerJoint_edge_width=1.0&FingerJoint_extra_length=0.0&FingerJoint_finger=2.0&FingerJoint_play=0.0&FingerJoint_space=2.0&FingerJoint_width=1.0&x=230&y=80&h=115&outside=0&outside=1&thickness=3.8&format=svg&tabs=0.0&debug=0&labels=0&labels=1&reference=100&burn=0.1&render=1
SettingsUrl: http://www.festi.info/ClosedBox?FingerJoint_angle=90.0&FingerJoint_style=rectangular&FingerJoint_surroundingspaces=2.0&FingerJoint_edge_width=1.0&FingerJoint_extra_length=0.0&FingerJoint_finger=2.0&FingerJoint_play=0.0&FingerJoint_space=2.0&FingerJoint_width=1.0&x=230&y=80&h=115&outside=0&outside=1&thickness=3.8&format=svg&tabs=0.0&debug=0&labels=0&labels=1&reference=100&burn=0.1
-->
  <title
     id="title170">Box-Schnittplan</title>
  <metadata
     id="metadata172">
    <rdf:RDF>
      <cc:Work>
        <dc:title>Box-Schnittplan</dc:title>
        <dc:date>2022-01-17 10:34:19</dc:date>
        <dc:source>http://www.festi.info/ClosedBox?FingerJoint_angle=90.0&amp;FingerJoint_style=rectangular&amp;FingerJoint_surroundingspaces=2.0&amp;FingerJoint_edge_width=1.0&amp;FingerJoint_extra_length=0.0&amp;FingerJoint_finger=2.0&amp;FingerJoint_play=0.0&amp;FingerJoint_space=2.0&amp;FingerJoint_width=1.0&amp;x=230&amp;y=80&amp;h=115&amp;outside=0&amp;outside=1&amp;thickness=3.8&amp;format=svg&amp;tabs=0.0&amp;debug=0&amp;labels=0&amp;labels=1&amp;reference=100&amp;burn=0.1&amp;render=1</dc:source>
        <dc:description>Fully closed box

This box is more of a building block than a finished item.
Use a vector graphics program (like Inkscape) to add holes or adjust the base
plate.

See BasedBox for variant with a base.

Created with Boxes.py (https://festi.info/boxes.py)
Command line: boxes ClosedBox --FingerJoint_angle=90.0 --FingerJoint_style=rectangular --FingerJoint_surroundingspaces=2.0 --FingerJoint_edge_width=1.0 --FingerJoint_extra_length=0.0 --FingerJoint_finger=2.0 --FingerJoint_play=0.0 --FingerJoint_space=2.0 --FingerJoint_width=1.0 --x=230 --y=80 --h=115 --outside=0 --outside=1 --thickness=3.8 --format=svg --tabs=0.0 --debug=0 --labels=0 --labels=1 --reference=100 --burn=0.1
Url: http://www.festi.info/ClosedBox?FingerJoint_angle=90.0&amp;FingerJoint_style=rectangular&amp;FingerJoint_surroundingspaces=2.0&amp;FingerJoint_edge_width=1.0&amp;FingerJoint_extra_length=0.0&amp;FingerJoint_finger=2.0&amp;FingerJoint_play=0.0&amp;FingerJoint_space=2.0&amp;FingerJoint_width=1.0&amp;x=230&amp;y=80&amp;h=115&amp;outside=0&amp;outside=1&amp;thickness=3.8&amp;format=svg&amp;tabs=0.0&amp;debug=0&amp;labels=0&amp;labels=1&amp;reference=100&amp;burn=0.1&amp;render=1
SettingsUrl: http://www.festi.info/ClosedBox?FingerJoint_angle=90.0&amp;FingerJoint_style=rectangular&amp;FingerJoint_surroundingspaces=2.0&amp;FingerJoint_edge_width=1.0&amp;FingerJoint_extra_length=0.0&amp;FingerJoint_finger=2.0&amp;FingerJoint_play=0.0&amp;FingerJoint_space=2.0&amp;FingerJoint_width=1.0&amp;x=230&amp;y=80&amp;h=115&amp;outside=0&amp;outside=1&amp;thickness=3.8&amp;format=svg&amp;tabs=0.0&amp;debug=0&amp;labels=0&amp;labels=1&amp;reference=100&amp;burn=0.1
</dc:description>
      </cc:Work>
    </rdf:RDF>
  </metadata>
  <g
     id="p-1"
     style="fill:none;stroke-width:0.14111111;stroke-linecap:round;stroke-linejoin:round;stroke-miterlimit:4;stroke-dasharray:none"
     transform="translate(0,-0.56426281)">
    <text
       alignment-baseline="hanging"
       font-size="4px"
       style="font-style:normal;font-weight:normal;font-family:sans-serif;fill:#ff0000;stroke-width:0.14111111;stroke-miterlimit:4;stroke-dasharray:none"
       text-anchor="middle"
       transform="translate(125.1,264.9)"
       id="text181">Wall 1</text>
    <path
       d="m 13.9,324.4 h 8.6 c 0.055,0 0.1,-0.045 0.1,-0.1 v -3.7 c 0,-0.1 -0.1,0 0,0 H 30 c 0.1,0 0,-0.1 0,0 v 3.7 c 0,0.055 0.045,0.1 0.1,0.1 h 7.6 c 0.055,0 0.1,-0.045 0.1,-0.1 v -3.7 c 0,-0.1 -0.1,0 0,0 h 7.4 c 0.1,0 0,-0.1 0,0 v 3.7 c 0,0.055 0.045,0.1 0.1,0.1 h 7.6 c 0.055,0 0.1,-0.045 0.1,-0.1 v -3.7 c 0,-0.1 -0.1,0 0,0 h 7.4 c 0.1,0 0,-0.1 0,0 v 3.7 c 0,0.055 0.045,0.1 0.1,0.1 h 7.6 c 0.055,0 0.1,-0.045 0.1,-0.1 v -3.7 c 0,-0.1 -0.1,0 0,0 h 7.4 c 0.1,0 0,-0.1 0,0 v 3.7 c 0,0.055 0.045,0.1 0.1,0.1 h 7.6 c 0.055,0 0.1,-0.045 0.1,-0.1 v -3.7 c 0,-0.1 -0.1,0 0,0 h 7.4 c 0.1,0 0,-0.1 0,0 v 3.7 c 0,0.055 0.045,0.1 0.1,0.1 h 7.6 c 0.055,0 0.1,-0.045 0.1,-0.1 v -3.7 c 0,-0.1 -0.1,0 0,0 h 7.4 c 0.1,0 0,-0.1 0,0 v 3.7 c 0,0.055 0.045,0.1 0.1,0.1 h 7.6 c 0.055,0 0.1,-0.045 0.1,-0.1 v -3.7 c 0,-0.1 -0.1,0 0,0 h 7.4 c 0.1,0 0,-0.1 0,0 v 3.7 c 0,0.055 0.045,0.1 0.1,0.1 h 7.6 c 0.055,0 0.1,-0.045 0.1,-0.1 v -3.7 c 0,-0.1 -0.1,0 0,0 h 7.4 c 0.1,0 0,-0.1 0,0 v 3.7 c 0,0.055 0.045,0.1 0.1,0.1 h 7.6 c 0.055,0 0.1,-0.045 0.1,-0.1 v -3.7 c 0,-0.1 -0.1,0 0,0 h 7.4 c 0.1,0 0,-0.1 0,0 v 3.7 c 0,0.055 0.045,0.1 0.1,0.1 h 7.6 c 0.055,0 0.1,-0.045 0.1,-0.1 v -3.7 c 0,-0.1 -0.1,0 0,0 h 7.4 c 0.1,0 0,-0.1 0,0 v 3.7 c 0,0.055 0.045,0.1 0.1,0.1 h 7.6 c 0.055,0 0.1,-0.045 0.1,-0.1 v -3.7 c 0,-0.1 -0.1,0 0,0 h 7.4 c 0.1,0 0,-0.1 0,0 v 3.7 c 0,0.055 0.045,0.1 0.1,0.1 h 7.6 c 0.055,0 0.1,-0.045 0.1,-0.1 v -3.7 c 0,-0.1 -0.1,0 0,0 h 7.4 c 0.1,0 0,-0.1 0,0 v 3.7 c 0,0.055 0.045,0.1 0.1,0.1 h 7.6 c 0.055,0 0.1,-0.045 0.1,-0.1 v -3.7 c 0,-0.1 -0.1,0 0,0 h 7.4 c 0.1,0 0,-0.1 0,0 v 3.7 c 0,0.055 0.045,0.1 0.1,0.1 h 7.6 c 0.055,0 0.1,-0.045 0.1,-0.1 v -3.7 c 0,-0.1 -0.1,0 0,0 h 7.4 c 0.1,0 0,-0.1 0,0 v 3.7 c 0,0.055 0.045,0.1 0.1,0.1 h 8.6 3.8 c 0.055,0 0.1,-0.045 0.1,-0.1 v -3.8 c 0.19666,-45.02997 0,-65.38428 0,-107.4 v -3.8 c 0,-0.055 -0.045,-0.1 -0.1,-0.1 h -3.8 -8.6 c -0.055,0 -0.1,0.045 -0.1,0.1 v 3.7 c 0,0.1 0.1,0 0,0 h -7.4 c -0.1,0 0,0.1 0,0 v -3.7 c 0,-0.055 -0.045,-0.1 -0.1,-0.1 h -7.6 c -0.055,0 -0.1,0.045 -0.1,0.1 v 3.7 c 0,0.1 0.1,0 0,0 H 205 c -0.1,0 0,0.1 0,0 v -3.7 c 0,-0.055 -0.045,-0.1 -0.1,-0.1 h -7.6 c -0.055,0 -0.1,0.045 -0.1,0.1 v 3.7 c 0,0.1 0.1,0 0,0 h -7.4 c -0.1,0 0,0.1 0,0 v -3.7 c 0,-0.055 -0.045,-0.1 -0.1,-0.1 h -7.6 c -0.055,0 -0.1,0.045 -0.1,0.1 v 3.7 c 0,0.1 0.1,0 0,0 h -7.4 c -0.1,0 0,0.1 0,0 v -3.7 c 0,-0.055 -0.045,-0.1 -0.1,-0.1 h -7.6 c -0.055,0 -0.1,0.045 -0.1,0.1 v 3.7 c 0,0.1 0.1,0 0,0 h -7.4 c -0.1,0 0,0.1 0,0 v -3.7 c 0,-0.055 -0.045,-0.1 -0.1,-0.1 h -7.6 c -0.055,0 -0.1,0.045 -0.1,0.1 v 3.7 c 0,0.1 0.1,0 0,0 h -7.4 c -0.1,0 0,0.1 0,0 v -3.7 c 0,-0.055 -0.045,-0.1 -0.1,-0.1 h -7.6 c -0.055,0 -0.1,0.045 -0.1,0.1 v 3.7 c 0,0.1 0.1,0 0,0 H 129 c -0.1,0 0,0.1 0,0 v -3.7 c 0,-0.055 -0.045,-0.1 -0.1,-0.1 h -7.6 c -0.055,0 -0.1,0.045 -0.1,0.1 v 3.7 c 0,0.1 0.1,0 0,0 h -7.4 c -0.1,0 0,0.1 0,0 v -3.7 c 0,-0.055 -0.045,-0.1 -0.1,-0.1 h -7.6 c -0.055,0 -0.1,0.045 -0.1,0.1 v 3.7 c 0,0.1 0.1,0 0,0 h -7.4 c -0.1,0 0,0.1 0,0 v -3.7 c 0,-0.055 -0.045,-0.1 -0.1,-0.1 h -7.6 c -0.055,0 -0.1,0.045 -0.1,0.1 v 3.7 c 0,0.1 0.1,0 0,0 h -7.4 c -0.1,0 0,0.1 0,0 v -3.7 c 0,-0.055 -0.045,-0.1 -0.1,-0.1 h -7.6 c -0.055,0 -0.1,0.045 -0.1,0.1 v 3.7 c 0,0.1 0.1,0 0,0 h -7.4 c -0.1,0 0,0.1 0,0 v -3.7 c 0,-0.055 -0.045,-0.1 -0.1,-0.1 h -7.6 c -0.055,0 -0.1,0.045 -0.1,0.1 v 3.7 c 0,0.1 0.1,0 0,0 H 53 c -0.1,0 0,0.1 0,0 v -3.7 c 0,-0.055 -0.045,-0.1 -0.1,-0.1 h -7.6 c -0.055,0 -0.1,0.045 -0.1,0.1 v 3.7 c 0,0.1 0.1,0 0,0 h -7.4 c -0.1,0 0,0.1 0,0 v -3.7 c 0,-0.055 -0.045,-0.1 -0.1,-0.1 h -7.6 c -0.055,0 -0.1,0.045 -0.1,0.1 v 3.7 c 0,0.1 0.1,0 0,0 h -7.4 c -0.1,0 0,0.1 0,0 v -3.7 c 0,-0.055 -0.045,-0.1 -0.1,-0.1 h -8.6 -3.8 c -0.055,0 -0.1,0.045 -0.1,0.1 v 3.8 11.9 c 0,0.055 0.045,0.1 0.1,0.1 h 3.7 c 0.1,0 0,-0.1 0,0 v 7.4 c 0,0.1 0.1,0 0,0 h -3.7 c -0.055,0 -0.1,0.045 -0.1,0.1 v 7.6 c 0,0.055 0.045,0.1 0.1,0.1 h 3.7 c 0.1,0 0,-0.1 0,0 v 7.4 c 0,0.1 0.1,0 0,0 h -3.7 c -0.055,0 -0.1,0.045 -0.1,0.1 v 7.6 c 0,0.055 0.045,0.1 0.1,0.1 h 3.7 c 0.1,0 0,-0.1 0,0 v 7.4 c 0,0.1 0.1,0 0,0 h -3.7 c -0.055,0 -0.1,0.045 -0.1,0.1 v 7.6 c 0,0.055 0.045,0.1 0.1,0.1 h 3.7 c 0.1,0 0,-0.1 0,0 v 7.4 c 0,0.1 0.1,0 0,0 h -3.7 c -0.055,0 -0.1,0.045 -0.1,0.1 v 7.6 c 0,0.055 0.045,0.1 0.1,0.1 h 3.7 c 0.1,0 0,-0.1 0,0 v 7.4 c 0,0.1 0.1,0 0,0 h -3.7 c -0.055,0 -0.1,0.045 -0.1,0.1 v 7.6 c 0,0.055 0.045,0.1 0.1,0.1 h 3.7 c 0.1,0 0,-0.1 0,0 v 7.4 c 0,0.1 0.1,0 0,0 h -3.7 c -0.055,0 -0.1,0.045 -0.1,0.1 v 11.9 3.8 c 0,0.055 0.045,0.1 0.1,0.1 h 3.8"
       stroke="#000000"
       stroke-width="0.2"
       id="path183"
       sodipodi:nodetypes="csssssssssssssssssssssssssssssssssssssssssssssssssssssssssssssssssssssssssssssssssssssssssssssssssssssssssssssssscssccsscsssssssssssssssssssssssssssssssssssssssssssssssssssssssssssssssssssssssssssssssssssssssssssssssssssssssssssssssscsscsssssssssssssssssssssssssssssssssssssssssssssssscssc"
       style="stroke-width:0.14111111;stroke-miterlimit:4;stroke-dasharray:none" />
  </g>
  <g
     id="p-3"
     style="fill:none;stroke-linecap:round;stroke-linejoin:round;stroke-width:0.14375803;stroke-miterlimit:4;stroke-dasharray:none"
     transform="matrix(1,0,0,0.96351438,-1.8039896,123.16659)">
    <text
       alignment-baseline="hanging"
       font-size="4px"
       style="font-style:normal;font-weight:normal;font-family:sans-serif;fill:#ff0000;stroke-width:0.14375803;stroke-miterlimit:4;stroke-dasharray:none"
       text-anchor="middle"
       transform="translate(282.2,147.8)"
       id="text191">Wall 4</text>
    <path
       d="m 246,207.3 c 50.67686,0.0262 29.64478,0 72.4,0 0.055,0 0.1,-0.045 0.1,-0.1 v -3.8 c 0.0693,-48.78546 0,-63.99648 0,-107.4 v -3.8 c 0,-0.055 -0.045,-0.1 -0.1,-0.1 -32.86005,0.03048 -43.75135,0 -72.4,0 -0.055,0 -0.1,0.045 -0.1,0.1 V 96 c -0.0693,54.71022 0,62.58582 0,107.4 v 3.8 c 0,0.055 0.045,0.1 0.1,0.1"
       stroke="#000000"
       stroke-width="0.2"
       id="path193"
       sodipodi:nodetypes="ccsccsccsccsc"
       style="stroke-width:0.14375803;stroke-miterlimit:4;stroke-dasharray:none" />
  </g>
  <g
     id="p-3-6"
     style="display:inline;fill:none;stroke-width:0.148129;stroke-linecap:round;stroke-linejoin:round;stroke-miterlimit:4;stroke-dasharray:none"
     transform="matrix(0.98627576,0,0,0.92011862,84.23373,9.5130453)">
    <path
       d="m 246,207.3 c 50.67686,0.0262 29.64478,0 72.4,0 0.055,0 0.1,-0.045 0.1,-0.1 v -3.8 c 0.0693,-48.78546 0,-63.99648 0,-107.4 v -3.8 c 0,-0.055 -0.045,-0.1 -0.1,-0.1 -8.21502,0.0076 -15.05698,0.01143 -21.14662,0.01286 -6.08964,0.0014 -11.4716,2.400243 -16.67731,2.398367 C 275.37036,94.509327 270.34091,92.10666 264.7777,92.10436 259.21449,92.101905 253.16216,92.1 246,92.1 c -0.055,0 -0.1,0.045 -0.1,0.1 V 96 c -0.0693,54.71022 0,62.58582 0,107.4 v 3.8 c 0,0.055 0.045,0.1 0.1,0.1"
       stroke="#000000"
       stroke-width="0.2"
       id="path193-8"
       sodipodi:nodetypes="ccsccscssscsccsc"
       style="stroke-width:0.148129;stroke-miterlimit:4;stroke-dasharray:none" />
  </g>
  <g
     id="p-4"
     style="fill:none;stroke-linecap:round;stroke-linejoin:round;stroke-width:0.14111111;stroke-miterlimit:4;stroke-dasharray:none"
     transform="translate(0,-1.1285256)">
    <text
       alignment-baseline="hanging"
       font-size="4px"
       style="font-style:normal;font-weight:normal;font-family:sans-serif;fill:#ff0000;stroke-width:0.14111111;stroke-miterlimit:4;stroke-dasharray:none"
       text-anchor="middle"
       transform="translate(125.1,147.8)"
       id="text196">Wall 3</text>
    <path
       d="m 13.9,207.3 h 8.6 c 0.055,0 0.1,-0.045 0.1,-0.1 v -3.7 c 0,-0.1 -0.1,0 0,0 H 30 c 0.1,0 0,-0.1 0,0 v 3.7 c 0,0.055 0.045,0.1 0.1,0.1 h 7.6 c 0.055,0 0.1,-0.045 0.1,-0.1 v -3.7 c 0,-0.1 -0.1,0 0,0 h 7.4 c 0.1,0 0,-0.1 0,0 v 3.7 c 0,0.055 0.045,0.1 0.1,0.1 h 7.6 c 0.055,0 0.1,-0.045 0.1,-0.1 v -3.7 c 0,-0.1 -0.1,0 0,0 h 7.4 c 0.1,0 0,-0.1 0,0 v 3.7 c 0,0.055 0.045,0.1 0.1,0.1 h 7.6 c 0.055,0 0.1,-0.045 0.1,-0.1 v -3.7 c 0,-0.1 -0.1,0 0,0 h 7.4 c 0.1,0 0,-0.1 0,0 v 3.7 c 0,0.055 0.045,0.1 0.1,0.1 h 7.6 c 0.055,0 0.1,-0.045 0.1,-0.1 v -3.7 c 0,-0.1 -0.1,0 0,0 h 7.4 c 0.1,0 0,-0.1 0,0 v 3.7 c 0,0.055 0.045,0.1 0.1,0.1 h 7.6 c 0.055,0 0.1,-0.045 0.1,-0.1 v -3.7 c 0,-0.1 -0.1,0 0,0 h 7.4 c 0.1,0 0,-0.1 0,0 v 3.7 c 0,0.055 0.045,0.1 0.1,0.1 h 7.6 c 0.055,0 0.1,-0.045 0.1,-0.1 v -3.7 c 0,-0.1 -0.1,0 0,0 h 7.4 c 0.1,0 0,-0.1 0,0 v 3.7 c 0,0.055 0.045,0.1 0.1,0.1 h 7.6 c 0.055,0 0.1,-0.045 0.1,-0.1 v -3.7 c 0,-0.1 -0.1,0 0,0 h 7.4 c 0.1,0 0,-0.1 0,0 v 3.7 c 0,0.055 0.045,0.1 0.1,0.1 h 7.6 c 0.055,0 0.1,-0.045 0.1,-0.1 v -3.7 c 0,-0.1 -0.1,0 0,0 h 7.4 c 0.1,0 0,-0.1 0,0 v 3.7 c 0,0.055 0.045,0.1 0.1,0.1 h 7.6 c 0.055,0 0.1,-0.045 0.1,-0.1 v -3.7 c 0,-0.1 -0.1,0 0,0 h 7.4 c 0.1,0 0,-0.1 0,0 v 3.7 c 0,0.055 0.045,0.1 0.1,0.1 h 7.6 c 0.055,0 0.1,-0.045 0.1,-0.1 v -3.7 c 0,-0.1 -0.1,0 0,0 h 7.4 c 0.1,0 0,-0.1 0,0 v 3.7 c 0,0.055 0.045,0.1 0.1,0.1 h 7.6 c 0.055,0 0.1,-0.045 0.1,-0.1 v -3.7 c 0,-0.1 -0.1,0 0,0 h 7.4 c 0.1,0 0,-0.1 0,0 v 3.7 c 0,0.055 0.045,0.1 0.1,0.1 h 7.6 c 0.055,0 0.1,-0.045 0.1,-0.1 v -3.7 c 0,-0.1 -0.1,0 0,0 h 7.4 c 0.1,0 0,-0.1 0,0 v 3.7 c 0,0.055 0.045,0.1 0.1,0.1 h 7.6 c 0.055,0 0.1,-0.045 0.1,-0.1 v -3.7 c 0,-0.1 -0.1,0 0,0 h 7.4 c 0.1,0 0,-0.1 0,0 v 3.7 c 0,0.055 0.045,0.1 0.1,0.1 h 8.6 3.8 c 0.055,0 0.1,-0.045 0.1,-0.1 v -3.8 c 0.0539,-66.44188 0,-63.69149 0,-107.4 v -3.8 c 0,-0.055 -0.045,-0.1 -0.1,-0.1 h -3.8 -8.6 c -0.055,0 -0.1,0.045 -0.1,0.1 v 3.7 c 0,0.1 0.1,0 0,0 h -7.4 c -0.1,0 0,0.1 0,0 v -3.7 c 0,-0.055 -0.045,-0.1 -0.1,-0.1 h -7.6 c -0.055,0 -0.1,0.045 -0.1,0.1 v 3.7 c 0,0.1 0.1,0 0,0 H 205 c -0.1,0 0,0.1 0,0 v -3.7 c 0,-0.055 -0.045,-0.1 -0.1,-0.1 h -7.6 c -0.055,0 -0.1,0.045 -0.1,0.1 v 3.7 c 0,0.1 0.1,0 0,0 h -7.4 c -0.1,0 0,0.1 0,0 v -3.7 c 0,-0.055 -0.045,-0.1 -0.1,-0.1 h -7.6 c -0.055,0 -0.1,0.045 -0.1,0.1 v 3.7 c 0,0.1 0.1,0 0,0 h -7.4 c -0.1,0 0,0.1 0,0 v -3.7 c 0,-0.055 -0.045,-0.1 -0.1,-0.1 h -7.6 c -0.055,0 -0.1,0.045 -0.1,0.1 v 3.7 c 0,0.1 0.1,0 0,0 h -7.4 c -0.1,0 0,0.1 0,0 v -3.7 c 0,-0.055 -0.045,-0.1 -0.1,-0.1 h -7.6 c -0.055,0 -0.1,0.045 -0.1,0.1 v 3.7 c 0,0.1 0.1,0 0,0 h -7.4 c -0.1,0 0,0.1 0,0 v -3.7 c 0,-0.055 -0.045,-0.1 -0.1,-0.1 h -7.6 c -0.055,0 -0.1,0.045 -0.1,0.1 v 3.7 c 0,0.1 0.1,0 0,0 H 129 c -0.1,0 0,0.1 0,0 v -3.7 c 0,-0.055 -0.045,-0.1 -0.1,-0.1 h -7.6 c -0.055,0 -0.1,0.045 -0.1,0.1 v 3.7 c 0,0.1 0.1,0 0,0 h -7.4 c -0.1,0 0,0.1 0,0 v -3.7 c 0,-0.055 -0.045,-0.1 -0.1,-0.1 h -7.6 c -0.055,0 -0.1,0.045 -0.1,0.1 v 3.7 c 0,0.1 0.1,0 0,0 h -7.4 c -0.1,0 0,0.1 0,0 v -3.7 c 0,-0.055 -0.045,-0.1 -0.1,-0.1 h -7.6 c -0.055,0 -0.1,0.045 -0.1,0.1 v 3.7 c 0,0.1 0.1,0 0,0 h -7.4 c -0.1,0 0,0.1 0,0 v -3.7 c 0,-0.055 -0.045,-0.1 -0.1,-0.1 h -7.6 c -0.055,0 -0.1,0.045 -0.1,0.1 v 3.7 c 0,0.1 0.1,0 0,0 h -7.4 c -0.1,0 0,0.1 0,0 v -3.7 c 0,-0.055 -0.045,-0.1 -0.1,-0.1 h -7.6 c -0.055,0 -0.1,0.045 -0.1,0.1 v 3.7 c 0,0.1 0.1,0 0,0 H 53 c -0.1,0 0,0.1 0,0 v -3.7 c 0,-0.055 -0.045,-0.1 -0.1,-0.1 h -7.6 c -0.055,0 -0.1,0.045 -0.1,0.1 v 3.7 c 0,0.1 0.1,0 0,0 h -7.4 c -0.1,0 0,0.1 0,0 v -3.7 c 0,-0.055 -0.045,-0.1 -0.1,-0.1 h -7.6 c -0.055,0 -0.1,0.045 -0.1,0.1 v 3.7 c 0,0.1 0.1,0 0,0 h -7.4 c -0.1,0 0,0.1 0,0 v -3.7 c 0,-0.055 -0.045,-0.1 -0.1,-0.1 h -8.6 -3.8 c -0.055,0 -0.1,0.045 -0.1,0.1 v 3.8 11.9 c 0,0.055 0.045,0.1 0.1,0.1 h 3.7 c 0.1,0 0,-0.1 0,0 v 7.4 c 0,0.1 0.1,0 0,0 h -3.7 c -0.055,0 -0.1,0.045 -0.1,0.1 v 7.6 c 0,0.055 0.045,0.1 0.1,0.1 h 3.7 c 0.1,0 0,-0.1 0,0 v 7.4 c 0,0.1 0.1,0 0,0 h -3.7 c -0.055,0 -0.1,0.045 -0.1,0.1 v 7.6 c 0,0.055 0.045,0.1 0.1,0.1 h 3.7 c 0.1,0 0,-0.1 0,0 v 7.4 c 0,0.1 0.1,0 0,0 h -3.7 c -0.055,0 -0.1,0.045 -0.1,0.1 v 7.6 c 0,0.055 0.045,0.1 0.1,0.1 h 3.7 c 0.1,0 0,-0.1 0,0 v 7.4 c 0,0.1 0.1,0 0,0 h -3.7 c -0.055,0 -0.1,0.045 -0.1,0.1 v 7.6 c 0,0.055 0.045,0.1 0.1,0.1 h 3.7 c 0.1,0 0,-0.1 0,0 v 7.4 c 0,0.1 0.1,0 0,0 h -3.7 c -0.055,0 -0.1,0.045 -0.1,0.1 v 7.6 c 0,0.055 0.045,0.1 0.1,0.1 h 3.7 c 0.1,0 0,-0.1 0,0 v 7.4 c 0,0.1 0.1,0 0,0 h -3.7 c -0.055,0 -0.1,0.045 -0.1,0.1 v 11.9 3.8 c 0,0.055 0.045,0.1 0.1,0.1 h 3.8"
       stroke="#000000"
       stroke-width="0.2"
       id="path198"
       sodipodi:nodetypes="csssssssssssssssssssssssssssssssssssssssssssssssssssssssssssssssssssssssssssssssssssssssssssssssssssssssssssssssscssccsscsssssssssssssssssssssssssssssssssssssssssssssssssssssssssssssssssssssssssssssssssssssssssssssssssssssssssssssssscsscsssssssssssssssssssssssssssssssssssssssssssssssscssc"
       style="stroke-width:0.14111111;stroke-miterlimit:4;stroke-dasharray:none" />
  </g>
  <g
     id="p-5"
     style="fill:none;stroke-linecap:round;stroke-linejoin:round;stroke-width:0.14111111;stroke-miterlimit:4;stroke-dasharray:none">
    <text
       alignment-baseline="hanging"
       font-size="4px"
       style="font-style:normal;font-weight:normal;font-family:sans-serif;fill:#ff0000;stroke-width:0.14111111;stroke-miterlimit:4;stroke-dasharray:none"
       text-anchor="middle"
       transform="translate(125.1,48.2)"
       id="text201">Top</text>
    <path
       d="m 13.9,86.4 h 8.5 c 0.1,0 0,-0.1 0,0 v 3.7 c 0,0.055 0.045,0.1 0.1,0.1 h 7.6 c 0.055,0 0.1,-0.045 0.1,-0.1 v -3.7 c 0,-0.1 -0.1,0 0,0 h 7.4 c 0.1,0 0,-0.1 0,0 v 3.7 c 0,0.055 0.045,0.1 0.1,0.1 h 7.6 c 0.055,0 0.1,-0.045 0.1,-0.1 v -3.7 c 0,-0.1 -0.1,0 0,0 h 7.4 c 0.1,0 0,-0.1 0,0 v 3.7 c 0,0.055 0.045,0.1 0.1,0.1 h 7.6 c 0.055,0 0.1,-0.045 0.1,-0.1 v -3.7 c 0,-0.1 -0.1,0 0,0 H 68 c 0.1,0 0,-0.1 0,0 v 3.7 c 0,0.055 0.045,0.1 0.1,0.1 h 7.6 c 0.055,0 0.1,-0.045 0.1,-0.1 v -3.7 c 0,-0.1 -0.1,0 0,0 h 7.4 c 0.1,0 0,-0.1 0,0 v 3.7 c 0,0.055 0.045,0.1 0.1,0.1 h 7.6 c 0.055,0 0.1,-0.045 0.1,-0.1 v -3.7 c 0,-0.1 -0.1,0 0,0 h 7.4 c 0.1,0 0,-0.1 0,0 v 3.7 c 0,0.055 0.045,0.1 0.1,0.1 h 7.6 c 0.055,0 0.1,-0.045 0.1,-0.1 v -3.7 c 0,-0.1 -0.1,0 0,0 h 7.4 c 0.1,0 0,-0.1 0,0 v 3.7 c 0,0.055 0.045,0.1 0.1,0.1 h 7.6 c 0.055,0 0.1,-0.045 0.1,-0.1 v -3.7 c 0,-0.1 -0.1,0 0,0 h 7.4 c 0.1,0 0,-0.1 0,0 v 3.7 c 0,0.055 0.045,0.1 0.1,0.1 h 7.6 c 0.055,0 0.1,-0.045 0.1,-0.1 v -3.7 c 0,-0.1 -0.1,0 0,0 h 7.4 c 0.1,0 0,-0.1 0,0 v 3.7 c 0,0.055 0.045,0.1 0.1,0.1 h 7.6 c 0.055,0 0.1,-0.045 0.1,-0.1 v -3.7 c 0,-0.1 -0.1,0 0,0 h 7.4 c 0.1,0 0,-0.1 0,0 v 3.7 c 0,0.055 0.045,0.1 0.1,0.1 h 7.6 c 0.055,0 0.1,-0.045 0.1,-0.1 v -3.7 c 0,-0.1 -0.1,0 0,0 h 7.4 c 0.1,0 0,-0.1 0,0 v 3.7 c 0,0.055 0.045,0.1 0.1,0.1 h 7.6 c 0.055,0 0.1,-0.045 0.1,-0.1 v -3.7 c 0,-0.1 -0.1,0 0,0 h 7.4 c 0.1,0 0,-0.1 0,0 v 3.7 c 0,0.055 0.045,0.1 0.1,0.1 h 7.6 c 0.055,0 0.1,-0.045 0.1,-0.1 v -3.7 c 0,-0.1 -0.1,0 0,0 h 7.4 c 0.1,0 0,-0.1 0,0 v 3.7 c 0,0.055 0.045,0.1 0.1,0.1 h 7.6 c 0.055,0 0.1,-0.045 0.1,-0.1 v -3.7 c 0,-0.1 -0.1,0 0,0 h 7.4 c 0.1,0 0,-0.1 0,0 v 3.7 c 0,0.055 0.045,0.1 0.1,0.1 h 7.6 c 0.055,0 0.1,-0.045 0.1,-0.1 v -3.7 c 0,-0.1 -0.1,0 0,0 h 8.5 c 0.055,0 3.98994,0.055 3.98994,0 -0.0236,-30.239703 0.2648,-46.419786 0.0998,-72.699749 L 227.8,13.8 c -0.1,7.92e-4 0,0.1 0,0 v -3.7 c 0,-0.055 -0.045,-0.1 -0.1,-0.1 h -7.6 c -0.055,0 -0.1,0.045 -0.1,0.1 v 3.7 c 0,0.1 0.1,0 0,0 h -7.4 c -0.1,0 0,0.1 0,0 v -3.7 c 0,-0.055 -0.045,-0.1 -0.1,-0.1 h -7.6 c -0.055,0 -0.1,0.045 -0.1,0.1 v 3.7 c 0,0.1 0.1,0 0,0 h -7.4 c -0.1,0 0,0.1 0,0 v -3.7 c 0,-0.055 -0.045,-0.1 -0.1,-0.1 h -7.6 c -0.055,0 -0.1,0.045 -0.1,0.1 v 3.7 c 0,0.1 0.1,0 0,0 h -7.4 c -0.1,0 0,0.1 0,0 v -3.7 c 0,-0.055 -0.045,-0.1 -0.1,-0.1 h -7.6 c -0.055,0 -0.1,0.045 -0.1,0.1 v 3.7 c 0,0.1 0.1,0 0,0 H 167 c -0.1,0 0,0.1 0,0 v -3.7 c 0,-0.055 -0.045,-0.1 -0.1,-0.1 h -7.6 c -0.055,0 -0.1,0.045 -0.1,0.1 v 3.7 c 0,0.1 0.1,0 0,0 h -7.4 c -0.1,0 0,0.1 0,0 v -3.7 c 0,-0.055 -0.045,-0.1 -0.1,-0.1 h -7.6 c -0.055,0 -0.1,0.045 -0.1,0.1 v 3.7 c 0,0.1 0.1,0 0,0 h -7.4 c -0.1,0 0,0.1 0,0 v -3.7 c 0,-0.055 -0.045,-0.1 -0.1,-0.1 h -7.6 c -0.055,0 -0.1,0.045 -0.1,0.1 v 3.7 c 0,0.1 0.1,0 0,0 h -7.4 c -0.1,0 0,0.1 0,0 v -3.7 c 0,-0.055 -0.045,-0.1 -0.1,-0.1 h -7.6 c -0.055,0 -0.1,0.045 -0.1,0.1 v 3.7 c 0,0.1 0.1,0 0,0 h -7.4 c -0.1,0 0,0.1 0,0 v -3.7 c 0,-0.055 -0.045,-0.1 -0.1,-0.1 h -7.6 c -0.055,0 -0.1,0.045 -0.1,0.1 v 3.7 c 0,0.1 0.1,0 0,0 H 91 c -0.1,0 0,0.1 0,0 V 10.1 C 91,10.045 90.955,10 90.9,10 h -7.6 c -0.055,0 -0.1,0.045 -0.1,0.1 v 3.7 c 0,0.1 0.1,0 0,0 h -7.4 c -0.1,0 0,0.1 0,0 V 10.1 C 75.8,10.045 75.755,10 75.7,10 H 68.1 C 68.045,10 68,10.045 68,10.1 v 3.7 c 0,0.1 0.1,0 0,0 h -7.4 c -0.1,0 0,0.1 0,0 V 10.1 C 60.6,10.045 60.555,10 60.5,10 h -7.6 c -0.055,0 -0.1,0.045 -0.1,0.1 v 3.7 c 0,0.1 0.1,0 0,0 h -7.4 c -0.1,0 0,0.1 0,0 V 10.1 C 45.4,10.045 45.355,10 45.3,10 h -7.6 c -0.055,0 -0.1,0.045 -0.1,0.1 v 3.7 c 0,0.1 0.1,0 0,0 h -7.4 c -0.1,0 0,0.1 0,0 V 10.1 C 30.2,10.045 30.155,10 30.1,10 h -7.6 c -0.055,0 -0.1,0.045 -0.1,0.1 v 3.7 c 0,0.1 0.1,0 0,0 h -8.5 c -0.055,0 -0.1,0.045 -0.1,0.1 v 9.5 c 0,0.1 0.1,0 0,0 h -3.7 c -0.055,0 -0.1,0.045 -0.1,0.1 v 7.6 c 0,0.055 0.045,0.1 0.1,0.1 h 3.7 c 0.1,0 0,-0.1 0,0 v 7.4 c 0,0.1 0.1,0 0,0 h -3.7 c -0.055,0 -0.1,0.045 -0.1,0.1 v 7.6 c 0,0.055 0.045,0.1 0.1,0.1 h 3.7 c 0.1,0 0,-0.1 0,0 v 7.4 c 0,0.1 0.1,0 0,0 h -3.7 c -0.055,0 -0.1,0.045 -0.1,0.1 v 7.6 c 0,0.055 0.045,0.1 0.1,0.1 h 3.7 c 0.1,0 0,-0.1 0,0 V 69 c 0,0.1 0.1,0 0,0 H 10.1 C 10.045,69 10,69.045 10,69.1 v 7.6 c 0,0.055 0.045,0.1 0.1,0.1 h 3.7 c 0.1,0 0,-0.1 0,0 v 9.5 c 0,0.055 0.045,0.1 0.1,0.1"
       stroke="#000000"
       stroke-width="0.2"
       id="path203"
       sodipodi:nodetypes="csssssssssssssssssssssssssssssssssssssssssssssssssssssssssssssssssssssssssssssssssssssssssssssssssssssssssssssssssccsssssssssssssssssssssssssssssssssssssssssssssssssssssssssssssssssssssssssssssssssssssssssssssssssssssssssssssssssssssssssssssssssssssssssssssssssssc"
       style="stroke-width:0.14111111;stroke-miterlimit:4;stroke-dasharray:none" />
  </g>
  <g
     id="p-6"
     style="fill:none;stroke-linecap:round;stroke-linejoin:round;stroke-width:0.14111111;stroke-miterlimit:4;stroke-dasharray:none"
     transform="translate(0.56426285,1.1285256)">
    <text
       alignment-baseline="hanging"
       font-size="4px"
       style="font-style:normal;font-weight:normal;font-family:sans-serif;fill:#ff0000;stroke-width:0.14111111;stroke-miterlimit:4;stroke-dasharray:none"
       text-anchor="middle"
       transform="translate(357.2,48.2)"
       id="text206">Bottom</text>
    <path
       d="m 246,86.4 h 8.5 c 0.1,0 0,-0.1 0,0 v 3.7 c 0,0.055 0.045,0.1 0.1,0.1 h 7.6 c 0.055,0 0.1,-0.045 0.1,-0.1 v -3.7 c 0,-0.1 -0.1,0 0,0 h 7.4 c 0.1,0 0,-0.1 0,0 v 3.7 c 0,0.055 0.045,0.1 0.1,0.1 h 7.6 c 0.055,0 0.1,-0.045 0.1,-0.1 v -3.7 c 0,-0.1 -0.1,0 0,0 h 7.4 c 0.1,0 0,-0.1 0,0 v 3.7 c 0,0.055 0.045,0.1 0.1,0.1 h 7.6 c 0.055,0 0.1,-0.045 0.1,-0.1 v -3.7 c 0,-0.1 -0.1,0 0,0 h 7.4 c 0.1,0 0,-0.1 0,0 v 3.7 c 0,0.055 0.045,0.1 0.1,0.1 h 7.6 c 0.055,0 0.1,-0.045 0.1,-0.1 v -3.7 c 0,-0.1 -0.1,0 0,0 h 7.4 c 0.1,0 0,-0.1 0,0 v 3.7 c 0,0.055 0.045,0.1 0.1,0.1 h 7.6 c 0.055,0 0.1,-0.045 0.1,-0.1 v -3.7 c 0,-0.1 -0.1,0 0,0 h 7.4 c 0.1,0 0,-0.1 0,0 v 3.7 c 0,0.055 0.045,0.1 0.1,0.1 h 7.6 c 0.055,0 0.1,-0.045 0.1,-0.1 v -3.7 c 0,-0.1 -0.1,0 0,0 h 7.4 c 0.1,0 0,-0.1 0,0 v 3.7 c 0,0.055 0.045,0.1 0.1,0.1 h 7.6 c 0.055,0 0.1,-0.045 0.1,-0.1 v -3.7 c 0,-0.1 -0.1,0 0,0 h 7.4 c 0.1,0 0,-0.1 0,0 v 3.7 c 0,0.055 0.045,0.1 0.1,0.1 h 7.6 c 0.055,0 0.1,-0.045 0.1,-0.1 v -3.7 c 0,-0.1 -0.1,0 0,0 h 7.4 c 0.1,0 0,-0.1 0,0 v 3.7 c 0,0.055 0.045,0.1 0.1,0.1 h 7.6 c 0.055,0 0.1,-0.045 0.1,-0.1 v -3.7 c 0,-0.1 -0.1,0 0,0 h 7.4 c 0.1,0 0,-0.1 0,0 v 3.7 c 0,0.055 0.045,0.1 0.1,0.1 h 7.6 c 0.055,0 0.1,-0.045 0.1,-0.1 v -3.7 c 0,-0.1 -0.1,0 0,0 h 7.4 c 0.1,0 0,-0.1 0,0 v 3.7 c 0,0.055 0.045,0.1 0.1,0.1 h 7.6 c 0.055,0 0.1,-0.045 0.1,-0.1 v -3.7 c 0,-0.1 -0.1,0 0,0 h 7.4 c 0.1,0 0,-0.1 0,0 v 3.7 c 0,0.055 0.045,0.1 0.1,0.1 h 7.6 c 0.055,0 0.1,-0.045 0.1,-0.1 v -3.7 c 0,-0.1 -0.1,0 0,0 h 7.4 c 0.1,0 0,-0.1 0,0 v 3.7 c 0,0.055 0.045,0.1 0.1,0.1 h 7.6 c 0.055,0 0.1,-0.045 0.1,-0.1 v -3.7 c 0,-0.1 -0.1,0 0,0 h 7.4 c 0.1,0 0,-0.1 0,0 v 3.7 c 0,0.055 0.045,0.1 0.1,0.1 h 7.6 c 0.055,0 0.1,-0.045 0.1,-0.1 v -3.7 c 0,-0.1 -0.1,0 0,0 0.0433,-37.113236 -0.23781,-36.291541 0,-72.6 -0.1,0 0,0.1 0,0 v -3.7 c 0,-0.055 -0.045,-0.1 -0.1,-0.1 h -7.6 c -0.055,0 -0.1,0.045 -0.1,0.1 v 3.7 c 0,0.1 0.1,0 0,0 h -7.4 c -0.1,0 0,0.1 0,0 v -3.7 c 0,-0.055 -0.045,-0.1 -0.1,-0.1 H 437 c -0.055,0 -0.1,0.045 -0.1,0.1 v 3.7 c 0,0.1 0.1,0 0,0 h -7.4 c -0.1,0 0,0.1 0,0 v -3.7 c 0,-0.055 -0.045,-0.1 -0.1,-0.1 h -7.6 c -0.055,0 -0.1,0.045 -0.1,0.1 v 3.7 c 0,0.1 0.1,0 0,0 h -7.4 c -0.1,0 0,0.1 0,0 v -3.7 c 0,-0.055 -0.045,-0.1 -0.1,-0.1 h -7.6 c -0.055,0 -0.1,0.045 -0.1,0.1 v 3.7 c 0,0.1 0.1,0 0,0 h -7.4 c -0.1,0 0,0.1 0,0 v -3.7 c 0,-0.055 -0.045,-0.1 -0.1,-0.1 h -7.6 c -0.055,0 -0.1,0.045 -0.1,0.1 v 3.7 c 0,0.1 0.1,0 0,0 h -7.4 c -0.1,0 0,0.1 0,0 v -3.7 c 0,-0.055 -0.045,-0.1 -0.1,-0.1 h -7.6 c -0.055,0 -0.1,0.045 -0.1,0.1 v 3.7 c 0,0.1 0.1,0 0,0 h -7.4 c -0.1,0 0,0.1 0,0 v -3.7 c 0,-0.055 -0.045,-0.1 -0.1,-0.1 H 361 c -0.055,0 -0.1,0.045 -0.1,0.1 v 3.7 c 0,0.1 0.1,0 0,0 h -7.4 c -0.1,0 0,0.1 0,0 v -3.7 c 0,-0.055 -0.045,-0.1 -0.1,-0.1 h -7.6 c -0.055,0 -0.1,0.045 -0.1,0.1 v 3.7 c 0,0.1 0.1,0 0,0 h -7.4 c -0.1,0 0,0.1 0,0 v -3.7 c 0,-0.055 -0.045,-0.1 -0.1,-0.1 h -7.6 c -0.055,0 -0.1,0.045 -0.1,0.1 v 3.7 c 0,0.1 0.1,0 0,0 h -7.4 c -0.1,0 0,0.1 0,0 v -3.7 c 0,-0.055 -0.045,-0.1 -0.1,-0.1 h -7.6 c -0.055,0 -0.1,0.045 -0.1,0.1 v 3.7 c 0,0.1 0.1,0 0,0 h -7.4 c -0.1,0 0,0.1 0,0 v -3.7 c 0,-0.055 -0.045,-0.1 -0.1,-0.1 h -7.6 c -0.055,0 -0.1,0.045 -0.1,0.1 v 3.7 c 0,0.1 0.1,0 0,0 h -7.4 c -0.1,0 0,0.1 0,0 v -3.7 c 0,-0.055 -0.045,-0.1 -0.1,-0.1 H 285 c -0.055,0 -0.1,0.045 -0.1,0.1 v 3.7 c 0,0.1 0.1,0 0,0 h -7.4 c -0.1,0 0,0.1 0,0 v -3.7 c 0,-0.055 -0.045,-0.1 -0.1,-0.1 h -7.6 c -0.055,0 -0.1,0.045 -0.1,0.1 v 3.7 c 0,0.1 0.1,0 0,0 h -7.4 c -0.1,0 0,0.1 0,0 v -3.7 c 0,-0.055 -0.045,-0.1 -0.1,-0.1 h -7.6 c -0.055,0 -0.1,0.045 -0.1,0.1 v 3.7 c 0,0.1 0.1,0 0,0 H 246 c -0.055,0 -0.1,0.045 -0.1,0.1 v 9.5 c 0,0.1 0.1,0 0,0 h -3.7 c -0.055,0 -0.1,0.045 -0.1,0.1 v 7.6 c 0,0.055 0.045,0.1 0.1,0.1 h 3.7 c 0.1,0 0,-0.1 0,0 v 7.4 c 0,0.1 0.1,0 0,0 h -3.7 c -0.055,0 -0.1,0.045 -0.1,0.1 v 7.6 c 0,0.055 0.045,0.1 0.1,0.1 h 3.7 c 0.1,0 0,-0.1 0,0 v 7.4 c 0,0.1 0.1,0 0,0 h -3.7 c -0.055,0 -0.1,0.045 -0.1,0.1 v 7.6 c 0,0.055 0.045,0.1 0.1,0.1 h 3.7 c 0.1,0 0,-0.1 0,0 V 69 c 0,0.1 0.1,0 0,0 h -3.7 c -0.055,0 -0.1,0.045 -0.1,0.1 v 7.6 c 0,0.055 0.045,0.1 0.1,0.1 h 3.7 c 0.1,0 0,-0.1 0,0 v 9.5 c 0,0.055 0.045,0.1 0.1,0.1"
       stroke="#000000"
       stroke-width="0.2"
       id="path208"
       sodipodi:nodetypes="csssssssssssssssssssssssssssssssssssssssssssssssssssssssssssssssssssssssssssssssssssssssssssssssssssssssssssssssccssssssssssssssssssssssssssssssssssssssssssssssssssssssssssssssssssssssssssssssssssssssssssssssssssssssssssssssssssssssssssssssssssssssssssssssssssc"
       style="stroke-width:0.14111111;stroke-miterlimit:4;stroke-dasharray:none" />
  </g>
  <rect
     style="fill:none;stroke:#000000;stroke-width:0.14111111;stroke-linejoin:round;stroke-miterlimit:4;stroke-dasharray:none;stroke-opacity:1"
     id="rect1132"
     width="69"
     x="25.7481"
     y="224.77028"
     height="50" />
  <circle
     style="fill:none;stroke:#000000;stroke-width:0.14111111;stroke-linejoin:round;stroke-miterlimit:4;stroke-dasharray:none;stroke-opacity:1"
     id="path1598"
     cx="232.95668"
     cy="307.44904"
     r="2" />
  <circle
     style="fill:none;stroke:#000000;stroke-width:0.14111111;stroke-linejoin:round;stroke-miterlimit:4;stroke-dasharray:none;stroke-opacity:1"
     id="path1598-3"
     cx="226.58476"
     cy="307.40076"
     r="2" />
  <circle
     style="fill:none;stroke:#000000;stroke-width:0.14111111;stroke-linejoin:round;stroke-miterlimit:4;stroke-dasharray:none;stroke-opacity:1"
     id="path1598-9"
     cx="233.53023"
     cy="190.36922"
     r="2" />
  <circle
     style="fill:none;stroke:#000000;stroke-width:0.14111111;stroke-linejoin:round;stroke-miterlimit:4;stroke-dasharray:none;stroke-opacity:1"
     id="path1598-3-9"
     cx="227.15831"
     cy="190.32094"
     r="2" />
  <rect
     style="fill:none;stroke:#000000;stroke-width:0.14111111;stroke-linejoin:round;stroke-miterlimit:4;stroke-dasharray:none;stroke-opacity:1"
     id="rect1236"
     width="22.205067"
     height="4.4074893"
     x="152.13251"
     y="308.30786" />
  <g
     id="p-2-8"
     style="fill:none;stroke-width:0.141111;stroke-linecap:round;stroke-linejoin:round;stroke-miterlimit:4;stroke-dasharray:none"
     transform="translate(1.0173229,-115.19626)">
    <text
       alignment-baseline="hanging"
       font-size="4px"
       style="font-style:normal;font-weight:normal;font-family:sans-serif;fill:#ff0000;stroke-width:0.141111;stroke-miterlimit:4;stroke-dasharray:none"
       text-anchor="middle"
       transform="translate(282.2,264.9)"
       id="text5602">Wall 2</text>
    <path
       d="m 246,324.4 h 9.6 c 0.055,0 0.1,-0.045 0.1,-0.1 v -3.7 c 0,-0.1 -0.1,0 0,0 h 7.4 c 0.1,0 0,-0.1 0,0 v 3.7 c 0,0.055 0.045,0.1 0.1,0.1 h 7.6 c 0.055,0 0.1,-0.045 0.1,-0.1 v -3.7 c 0,-0.1 -0.1,0 0,0 h 7.4 c 0.1,0 0,-0.1 0,0 v 3.7 c 0,0.055 0.045,0.1 0.1,0.1 h 7.6 c 0.055,0 0.1,-0.045 0.1,-0.1 v -3.7 c 0,-0.1 -0.1,0 0,0 h 7.4 c 0.1,0 0,-0.1 0,0 v 3.7 c 0,0.055 0.045,0.1 0.1,0.1 h 7.6 c 0.055,0 0.1,-0.045 0.1,-0.1 v -3.7 c 0,-0.1 -0.1,0 0,0 h 7.4 c 0.1,0 0,-0.1 0,0 v 3.7 c 0,0.055 0.045,0.1 0.1,0.1 h 9.6 c 0.055,0 0.1,-0.045 0.1,-0.1 v -3.8 -11.8 c 0,-0.1 -0.1,0 0,0 h 3.7 c 0.055,0 0.1,-0.045 0.1,-0.1 V 301 c 0,-0.055 -0.045,-0.1 -0.1,-0.1 h -3.7 c -0.1,0 0,0.1 0,0 v -7.4 c 0,-0.1 -0.1,0 0,0 h 3.7 c 0.055,0 0.1,-0.045 0.1,-0.1 v -7.6 c 0,-0.055 -0.045,-0.1 -0.1,-0.1 h -3.7 c -0.1,0 0,0.1 0,0 v -7.4 c 0,-0.1 -0.1,0 0,0 h 3.7 c 0.055,0 0.1,-0.045 0.1,-0.1 v -7.6 c 0,-0.055 -0.045,-0.1 -0.1,-0.1 h -3.7 c -0.1,0 0,0.1 0,0 v -7.4 c 0,-0.1 -0.1,0 0,0 h 3.7 c 0.055,0 0.1,-0.045 0.1,-0.1 v -7.6 c 0,-0.055 -0.045,-0.1 -0.1,-0.1 h -3.7 c -0.1,0 0,0.1 0,0 v -7.4 c 0,-0.1 -0.1,0 0,0 h 3.7 c 0.055,0 0.1,-0.045 0.1,-0.1 v -7.6 c 0,-0.055 -0.045,-0.1 -0.1,-0.1 h -3.7 c -0.1,0 0,0.1 0,0 v -7.4 c 0,-0.1 -0.1,0 0,0 h 3.7 c 0.055,0 0.1,-0.045 0.1,-0.1 V 225 c 0,-0.055 -0.045,-0.1 -0.1,-0.1 h -3.7 c -0.1,0 0,0.1 0,0 v -11.8 -3.8 c 0,-0.055 -0.045,-0.1 -0.1,-0.1 h -9.6 c -0.055,0 -0.1,0.045 -0.1,0.1 v 3.7 c 0,0.1 0.1,0 0,0 h -7.4 c -0.1,0 0,0.1 0,0 v -3.7 c 0,-0.055 -0.045,-0.1 -0.1,-0.1 h -7.6 c -0.055,0 -0.1,0.045 -0.1,0.1 v 3.7 c 0,0.1 0.1,0 0,0 h -7.4 c -0.1,0 0,0.1 0,0 v -3.7 c 0,-0.055 -0.045,-0.1 -0.1,-0.1 h -7.6 c -0.055,0 -0.1,0.045 -0.1,0.1 v 3.7 c 0,0.1 0.1,0 0,0 h -7.4 c -0.1,0 0,0.1 0,0 v -3.7 c 0,-0.055 -0.045,-0.1 -0.1,-0.1 h -7.6 c -0.055,0 -0.1,0.045 -0.1,0.1 v 3.7 c 0,0.1 0.1,0 0,0 h -7.4 c -0.1,0 0,0.1 0,0 v -3.7 c 0,-0.055 -0.045,-0.1 -0.1,-0.1 H 246 c -0.055,0 -0.1,0.045 -0.1,0.1 v 3.8 11.8 c 0,0.1 0.1,0 0,0 h -3.7 c -0.055,0 -0.1,0.045 -0.1,0.1 v 7.6 c 0,0.055 0.045,0.1 0.1,0.1 h 3.7 c 0.1,0 0,-0.1 0,0 v 7.4 c 0,0.1 0.1,0 0,0 h -3.7 c -0.055,0 -0.1,0.045 -0.1,0.1 v 7.6 c 0,0.055 0.045,0.1 0.1,0.1 h 3.7 c 0.1,0 0,-0.1 0,0 v 7.4 c 0,0.1 0.1,0 0,0 h -3.7 c -0.055,0 -0.1,0.045 -0.1,0.1 v 7.6 c 0,0.055 0.045,0.1 0.1,0.1 h 3.7 c 0.1,0 0,-0.1 0,0 v 7.4 c 0,0.1 0.1,0 0,0 h -3.7 c -0.055,0 -0.1,0.045 -0.1,0.1 v 7.6 c 0,0.055 0.045,0.1 0.1,0.1 h 3.7 c 0.1,0 0,-0.1 0,0 v 7.4 c 0,0.1 0.1,0 0,0 h -3.7 c -0.055,0 -0.1,0.045 -0.1,0.1 v 7.6 c 0,0.055 0.045,0.1 0.1,0.1 h 3.7 c 0.1,0 0,-0.1 0,0 v 7.4 c 0,0.1 0.1,0 0,0 h -3.7 c -0.055,0 -0.1,0.045 -0.1,0.1 v 7.6 c 0,0.055 0.045,0.1 0.1,0.1 h 3.7 c 0.1,0 0,-0.1 0,0 v 11.8 3.8 c 0,0.055 0.045,0.1 0.1,0.1"
       stroke="#000000"
       stroke-width="0.2"
       id="path5604"
       style="stroke-width:0.141111;stroke-miterlimit:4;stroke-dasharray:none" />
  </g>
  <text
     alignment-baseline="hanging"
     font-size="3.92635px"
     style="font-style:normal;font-weight:normal;font-family:sans-serif;fill:#ff0000;stroke-width:0.14111111;stroke-linecap:round;stroke-linejoin:round;stroke-miterlimit:4;stroke-dasharray:none"
     text-anchor="middle"
     transform="scale(1.0187577,0.98158768)"
     id="text191-9"
     x="354.87784"
     y="152.67368"><tspan
       sodipodi:role="line"
       id="tspan3650"
       x="354.87784"
       y="152.67368">Partition</tspan><tspan
       sodipodi:role="line"
       id="tspan3652"
       x="354.87784"
       y="157.58162" /></text>
  <circle
     style="fill:none;stroke:#000000;stroke-width:0.106392;stroke-miterlimit:4;stroke-dasharray:none"
     id="path2264"
     cx="307.97925"
     cy="195.24211"
     r="5.446804" />
</svg>
